<svg width="18" height="20" viewBox="0 0 18 20" fill="none" xmlns="http://www.w3.org/2000/svg">
<path d="M16.6027 7.00596C16.5142 7.0576 14.4071 8.14729 14.4071 10.5634C14.5064 13.3188 17.0661 14.2851 17.11 14.2851C17.0661 14.3368 16.7236 15.6015 15.7089 16.9272C14.9036 18.0692 14.0099 19.2206 12.6526 19.2206C11.3616 19.2206 10.8982 18.4595 9.40856 18.4595C7.80883 18.4595 7.35618 19.2206 6.13138 19.2206C4.77416 19.2206 3.81417 18.0075 2.96501 16.8763C1.86182 15.3956 0.924149 13.072 0.891046 10.841C0.868738 9.65878 1.11197 8.49667 1.72941 7.50957C2.60088 6.13152 4.15672 5.19606 5.85576 5.16521C7.15757 5.12431 8.31617 5.99808 9.11064 5.99808C9.872 5.99808 11.2954 5.16521 12.906 5.16521C13.6011 5.16588 15.4549 5.36102 16.6027 7.00596ZM9.00053 4.92917C8.76881 3.84953 9.40856 2.7699 10.0044 2.08121C10.7658 1.24835 11.9683 0.683044 13.0053 0.683044C13.0715 1.76268 12.6519 2.82153 11.9021 3.5927C11.2292 4.42556 10.0706 5.05256 9.00053 4.92917Z" fill="#110F0F"/>
</svg>
