<svg width="19" height="19" viewBox="0 0 19 19" fill="none" xmlns="http://www.w3.org/2000/svg">
<path d="M17.3211 9.6445C17.3211 8.99701 17.2675 8.52451 17.1515 8.03452H9.60683V10.957H14.0354C13.9461 11.6833 13.464 12.777 12.3925 13.512L12.3775 13.6098L14.763 15.4208L14.9282 15.437C16.4461 14.0632 17.3211 12.042 17.3211 9.6445Z" fill="#4285F4"/>
<path d="M9.60633 17.3446C11.7759 17.3446 13.5973 16.6446 14.9277 15.4371L12.392 13.512C11.7135 13.9758 10.8027 14.2995 9.60633 14.2995C7.48135 14.2995 5.6778 12.9258 5.03488 11.027L4.94065 11.0349L2.4602 12.9162L2.42776 13.0045C3.74917 15.577 6.46346 17.3446 9.60633 17.3446Z" fill="#34A853"/>
<path d="M5.03535 11.0271C4.86571 10.5371 4.76754 10.0121 4.76754 9.46958C4.76754 8.92704 4.86571 8.40206 5.02643 7.91207L5.02193 7.80771L2.5104 5.89624L2.42823 5.93454C1.88361 7.00206 1.57111 8.20083 1.57111 9.46958C1.57111 10.7383 1.88361 11.937 2.42823 13.0045L5.03535 11.0271Z" fill="#FBBC05"/>
<path d="M9.60637 4.63958C11.1153 4.63958 12.1331 5.27833 12.7135 5.81212L14.9813 3.6421C13.5885 2.37336 11.776 1.5946 9.60637 1.5946C6.46348 1.5946 3.74918 3.36209 2.42776 5.93457L5.02597 7.9121C5.67782 6.01335 7.48138 4.63958 9.60637 4.63958Z" fill="#EB4335"/>
</svg>
